STARTFONT 2.1
COMMENT
COMMENT Converted from OpenType font "CourierPrime-Regular.ttf" by "otf2bdf 3.0".
COMMENT
FONT -FreeType-Courier Prime-Medium-R-Normal--17-120-100-100-P-83-ISO10646-1
SIZE 12 100 100
FONTBOUNDINGBOX 19 19 -6 -4
STARTPROPERTIES 19
FOUNDRY "FreeType"
FAMILY_NAME "Courier Prime"
WEIGHT_NAME "Medium"
SLANT "R"
SETWIDTH_NAME "Normal"
ADD_STYLE_NAME ""
PIXEL_SIZE 17
POINT_SIZE 120
RESOLUTION_X 100
RESOLUTION_Y 100
SPACING "P"
AVERAGE_WIDTH 83
CHARSET_REGISTRY "ISO10646"
CHARSET_ENCODING "1"
FONT_ASCENT 13
FONT_DESCENT 5
COPYRIGHT "Copyright 2015 The Courier Prime Project Authors (https://github.com/quoteunquoteapps/CourierPrime)."
_OTF_FONTFILE "CourierPrime-Regular.ttf"
_OTF_PSNAME "CourierPrime-Regular"
ENDPROPERTIES
CHARS 383
STARTCHAR 000D
ENCODING 13
SWIDTH 600 0
DWIDTH 10 0
BBX 0 0 0 0
BITMAP
ENDCHAR
STARTCHAR 0020
ENCODING 32
SWIDTH 600 0
DWIDTH 10 0
BBX 0 0 0 0
BITMAP
ENDCHAR
STARTCHAR 0021
ENCODING 33
SWIDTH 600 0
DWIDTH 10 0
BBX 2 11 4 0
BITMAP
C0
C0
C0
C0
C0
40
40
00
00
C0
C0
ENDCHAR
STARTCHAR 0022
ENCODING 34
SWIDTH 600 0
DWIDTH 10 0
BBX 6 5 2 6
BITMAP
CC
CC
CC
4C
4C
ENDCHAR
STARTCHAR 0023
ENCODING 35
SWIDTH 600 0
DWIDTH 10 0
BBX 10 10 0 0
BITMAP
0900
0900
0900
7FC0
1200
1200
FF80
2200
2400
2400
ENDCHAR
STARTCHAR 0024
ENCODING 36
SWIDTH 600 0
DWIDTH 10 0
BBX 8 12 1 -1
BITMAP
18
18
3E
5E
5A
78
3E
5B
DB
FE
18
18
ENDCHAR
STARTCHAR 0025
ENCODING 37
SWIDTH 600 0
DWIDTH 10 0
BBX 10 10 0 0
BITMAP
7000
4880
C980
7300
0400
0B80
16C0
6440
46C0
0380
ENDCHAR
STARTCHAR 0026
ENCODING 38
SWIDTH 600 0
DWIDTH 10 0
BBX 8 10 1 0
BITMAP
3C
66
46
40
20
73
DA
CC
CE
7B
ENDCHAR
STARTCHAR 0027
ENCODING 39
SWIDTH 600 0
DWIDTH 10 0
BBX 2 5 4 6
BITMAP
C0
C0
C0
C0
40
ENDCHAR
STARTCHAR 0028
ENCODING 40
SWIDTH 600 0
DWIDTH 10 0
BBX 5 15 2 -3
BITMAP
08
18
30
20
40
40
40
C0
C0
40
40
60
20
10
08
ENDCHAR
STARTCHAR 0029
ENCODING 41
SWIDTH 600 0
DWIDTH 10 0
BBX 5 15 3 -4
BITMAP
80
60
20
30
10
18
18
18
18
10
10
30
60
C0
80
ENDCHAR
STARTCHAR 002A
ENCODING 42
SWIDTH 600 0
DWIDTH 10 0
BBX 7 7 2 3
BITMAP
30
30
96
FC
30
68
4C
ENDCHAR
STARTCHAR 002B
ENCODING 43
SWIDTH 600 0
DWIDTH 10 0
BBX 8 8 1 1
BITMAP
08
08
08
08
FF
08
08
08
ENDCHAR
STARTCHAR 002C
ENCODING 44
SWIDTH 600 0
DWIDTH 10 0
BBX 3 5 3 -2
BITMAP
60
60
C0
C0
80
ENDCHAR
STARTCHAR 002D
ENCODING 45
SWIDTH 600 0
DWIDTH 10 0
BBX 8 1 1 5
BITMAP
FF
ENDCHAR
STARTCHAR 002E
ENCODING 46
SWIDTH 600 0
DWIDTH 10 0
BBX 2 3 4 0
BITMAP
C0
C0
C0
ENDCHAR
STARTCHAR 002F
ENCODING 47
SWIDTH 600 0
DWIDTH 10 0
BBX 7 14 2 -3
BITMAP
06
04
0C
08
18
10
10
30
20
60
40
C0
80
80
ENDCHAR
STARTCHAR 0030
ENCODING 48
SWIDTH 600 0
DWIDTH 10 0
BBX 7 10 2 0
BITMAP
78
CC
84
86
86
86
86
84
CC
78
ENDCHAR
STARTCHAR 0031
ENCODING 49
SWIDTH 600 0
DWIDTH 10 0
BBX 7 10 2 0
BITMAP
10
70
D0
10
10
10
10
10
10
FE
ENDCHAR
STARTCHAR 0032
ENCODING 50
SWIDTH 600 0
DWIDTH 10 0
BBX 6 10 2 0
BITMAP
78
CC
84
04
0C
18
30
64
C4
FC
ENDCHAR
STARTCHAR 0033
ENCODING 51
SWIDTH 600 0
DWIDTH 10 0
BBX 6 10 2 0
BITMAP
78
8C
84
0C
38
0C
04
04
CC
78
ENDCHAR
STARTCHAR 0034
ENCODING 52
SWIDTH 600 0
DWIDTH 10 0
BBX 8 10 1 0
BITMAP
0C
0C
14
34
64
44
FF
04
04
1F
ENDCHAR
STARTCHAR 0035
ENCODING 53
SWIDTH 600 0
DWIDTH 10 0
BBX 6 10 2 0
BITMAP
FC
80
80
F8
CC
04
04
04
CC
78
ENDCHAR
STARTCHAR 0036
ENCODING 54
SWIDTH 600 0
DWIDTH 10 0
BBX 7 10 2 0
BITMAP
1C
70
40
80
B8
CC
86
86
CC
78
ENDCHAR
STARTCHAR 0037
ENCODING 55
SWIDTH 600 0
DWIDTH 10 0
BBX 7 10 2 0
BITMAP
FE
84
84
08
08
18
10
30
20
20
ENDCHAR
STARTCHAR 0038
ENCODING 56
SWIDTH 600 0
DWIDTH 10 0
BBX 6 10 2 0
BITMAP
78
CC
84
CC
78
CC
84
84
CC
78
ENDCHAR
STARTCHAR 0039
ENCODING 57
SWIDTH 600 0
DWIDTH 10 0
BBX 7 10 2 0
BITMAP
78
CC
84
84
CE
7C
04
0C
38
E0
ENDCHAR
STARTCHAR 003A
ENCODING 58
SWIDTH 600 0
DWIDTH 10 0
BBX 2 8 4 0
BITMAP
C0
C0
C0
00
00
C0
C0
C0
ENDCHAR
STARTCHAR 003B
ENCODING 59
SWIDTH 600 0
DWIDTH 10 0
BBX 3 11 3 -3
BITMAP
60
60
60
00
00
00
60
60
40
C0
C0
ENDCHAR
STARTCHAR 003C
ENCODING 60
SWIDTH 600 0
DWIDTH 10 0
BBX 8 8 1 1
BITMAP
03
0E
38
E0
E0
38
0E
03
ENDCHAR
STARTCHAR 003D
ENCODING 61
SWIDTH 600 0
DWIDTH 10 0
BBX 8 4 1 3
BITMAP
FF
00
00
FF
ENDCHAR
STARTCHAR 003E
ENCODING 62
SWIDTH 600 0
DWIDTH 10 0
BBX 8 8 1 1
BITMAP
C0
70
1C
07
07
1C
70
C0
ENDCHAR
STARTCHAR 003F
ENCODING 63
SWIDTH 600 0
DWIDTH 10 0
BBX 6 11 2 0
BITMAP
78
CC
84
04
18
30
20
00
00
30
30
ENDCHAR
STARTCHAR 0040
ENCODING 64
SWIDTH 600 0
DWIDTH 10 0
BBX 10 10 0 -1
BITMAP
1F00
3180
6E80
5A40
5240
9240
D680
5B80
6000
3E00
ENDCHAR
STARTCHAR 0041
ENCODING 65
SWIDTH 600 0
DWIDTH 10 0
BBX 10 10 0 0
BITMAP
3C00
0C00
1A00
1200
1300
3100
3F00
2180
4080
F3C0
ENDCHAR
STARTCHAR 0042
ENCODING 66
SWIDTH 600 0
DWIDTH 10 0
BBX 8 10 1 0
BITMAP
FC
46
42
42
7E
43
41
41
43
FE
ENDCHAR
STARTCHAR 0043
ENCODING 67
SWIDTH 600 0
DWIDTH 10 0
BBX 8 10 1 0
BITMAP
3D
63
C3
81
80
80
80
C0
63
3E
ENDCHAR
STARTCHAR 0044
ENCODING 68
SWIDTH 600 0
DWIDTH 10 0
BBX 8 10 1 0
BITMAP
FC
46
43
41
41
41
41
43
46
FC
ENDCHAR
STARTCHAR 0045
ENCODING 69
SWIDTH 600 0
DWIDTH 10 0
BBX 8 10 1 0
BITMAP
FF
41
41
4C
7C
4C
4C
41
41
FF
ENDCHAR
STARTCHAR 0046
ENCODING 70
SWIDTH 600 0
DWIDTH 10 0
BBX 8 10 1 0
BITMAP
FF
61
61
64
7C
64
64
60
60
F8
ENDCHAR
STARTCHAR 0047
ENCODING 71
SWIDTH 600 0
DWIDTH 10 0
BBX 9 10 1 0
BITMAP
3D00
6300
C100
8000
8000
8F80
8100
C100
6300
3E00
ENDCHAR
STARTCHAR 0048
ENCODING 72
SWIDTH 600 0
DWIDTH 10 0
BBX 9 10 1 0
BITMAP
E780
4200
4200
4200
7E00
4200
4200
4200
4200
E780
ENDCHAR
STARTCHAR 0049
ENCODING 73
SWIDTH 600 0
DWIDTH 10 0
BBX 7 10 2 0
BITMAP
FC
30
30
30
30
30
30
30
30
FE
ENDCHAR
STARTCHAR 004A
ENCODING 74
SWIDTH 600 0
DWIDTH 10 0
BBX 9 10 1 0
BITMAP
3F80
0400
0400
0400
0400
8400
8400
8400
CC00
7800
ENDCHAR
STARTCHAR 004B
ENCODING 75
SWIDTH 600 0
DWIDTH 10 0
BBX 9 10 1 0
BITMAP
F780
4200
4C00
5800
7C00
6400
4600
4200
4300
F180
ENDCHAR
STARTCHAR 004C
ENCODING 76
SWIDTH 600 0
DWIDTH 10 0
BBX 8 10 1 0
BITMAP
F8
20
20
20
20
20
21
21
21
FF
ENDCHAR
STARTCHAR 004D
ENCODING 77
SWIDTH 600 0
DWIDTH 10 0
BBX 10 10 0 0
BITMAP
E1C0
7380
7280
7280
6E80
6C80
6C80
4080
4080
F3C0
ENDCHAR
STARTCHAR 004E
ENCODING 78
SWIDTH 600 0
DWIDTH 10 0
BBX 9 10 1 0
BITMAP
E780
6300
7300
5300
5B00
4B00
4700
4700
4300
F300
ENDCHAR
STARTCHAR 004F
ENCODING 79
SWIDTH 600 0
DWIDTH 10 0
BBX 8 10 1 0
BITMAP
3C
66
C3
81
81
81
81
C3
66
3C
ENDCHAR
STARTCHAR 0050
ENCODING 80
SWIDTH 600 0
DWIDTH 10 0
BBX 8 10 1 0
BITMAP
FE
23
21
21
23
3E
20
20
20
F8
ENDCHAR
STARTCHAR 0051
ENCODING 81
SWIDTH 600 0
DWIDTH 10 0
BBX 8 12 1 -2
BITMAP
3C
66
C1
81
81
81
81
C1
66
3C
20
7F
ENDCHAR
STARTCHAR 0052
ENCODING 82
SWIDTH 600 0
DWIDTH 10 0
BBX 9 10 1 0
BITMAP
FE00
4200
4300
4200
7E00
4400
4600
4200
4300
F180
ENDCHAR
STARTCHAR 0053
ENCODING 83
SWIDTH 600 0
DWIDTH 10 0
BBX 8 10 1 0
BITMAP
3A
46
C2
40
7C
06
83
C3
E3
FE
ENDCHAR
STARTCHAR 0054
ENCODING 84
SWIDTH 600 0
DWIDTH 10 0
BBX 8 10 1 0
BITMAP
FF
99
99
99
18
18
18
18
18
7E
ENDCHAR
STARTCHAR 0055
ENCODING 85
SWIDTH 600 0
DWIDTH 10 0
BBX 9 10 1 0
BITMAP
E780
4300
4300
4300
4300
4300
4300
4300
6600
3C00
ENDCHAR
STARTCHAR 0056
ENCODING 86
SWIDTH 600 0
DWIDTH 10 0
BBX 10 10 0 0
BITMAP
F3C0
6080
2100
2100
3300
1200
1200
1E00
0C00
0C00
ENDCHAR
STARTCHAR 0057
ENCODING 87
SWIDTH 600 0
DWIDTH 10 0
BBX 10 10 0 0
BITMAP
F1C0
4080
4C80
4C80
6C80
6E80
3380
3300
3300
2100
ENDCHAR
STARTCHAR 0058
ENCODING 88
SWIDTH 600 0
DWIDTH 10 0
BBX 10 10 0 0
BITMAP
7BC0
2100
1300
1E00
0C00
0C00
1A00
3300
2180
F3C0
ENDCHAR
STARTCHAR 0059
ENCODING 89
SWIDTH 600 0
DWIDTH 10 0
BBX 10 10 0 0
BITMAP
F3C0
2100
3300
1200
0E00
0C00
0C00
0C00
0C00
3F00
ENDCHAR
STARTCHAR 005A
ENCODING 90
SWIDTH 600 0
DWIDTH 10 0
BBX 8 10 1 0
BITMAP
7F
42
46
4C
08
10
31
21
41
FF
ENDCHAR
STARTCHAR 005B
ENCODING 91
SWIDTH 600 0
DWIDTH 10 0
BBX 4 14 3 -3
BITMAP
F0
80
80
80
80
80
80
80
80
80
80
80
80
F0
ENDCHAR
STARTCHAR 005C
ENCODING 92
SWIDTH 600 0
DWIDTH 10 0
BBX 7 14 2 -3
BITMAP
80
80
C0
40
60
20
30
10
10
18
08
0C
04
06
ENDCHAR
STARTCHAR 005D
ENCODING 93
SWIDTH 600 0
DWIDTH 10 0
BBX 4 14 3 -3
BITMAP
F0
10
10
10
10
10
10
10
10
10
10
10
10
F0
ENDCHAR
STARTCHAR 005E
ENCODING 94
SWIDTH 600 0
DWIDTH 10 0
BBX 6 6 2 4
BITMAP
30
30
78
48
CC
84
ENDCHAR
STARTCHAR 005F
ENCODING 95
SWIDTH 600 0
DWIDTH 10 0
BBX 10 1 0 -3
BITMAP
FFC0
ENDCHAR
STARTCHAR 0060
ENCODING 96
SWIDTH 600 0
DWIDTH 10 0
BBX 4 3 3 9
BITMAP
80
E0
30
ENDCHAR
STARTCHAR 0061
ENCODING 97
SWIDTH 600 0
DWIDTH 10 0
BBX 9 8 1 0
BITMAP
3C00
4600
0200
7E00
C200
8200
CE00
7B80
ENDCHAR
STARTCHAR 0062
ENCODING 98
SWIDTH 600 0
DWIDTH 10 0
BBX 9 11 0 0
BITMAP
E000
2000
2000
2E00
3100
2080
2080
2080
2080
3100
EE00
ENDCHAR
STARTCHAR 0063
ENCODING 99
SWIDTH 600 0
DWIDTH 10 0
BBX 8 8 1 0
BITMAP
3F
67
C3
83
80
C0
63
3E
ENDCHAR
STARTCHAR 0064
ENCODING 100
SWIDTH 600 0
DWIDTH 10 0
BBX 9 11 1 0
BITMAP
0F00
0300
0300
3B00
6700
C300
8300
8300
C300
6700
3B80
ENDCHAR
STARTCHAR 0065
ENCODING 101
SWIDTH 600 0
DWIDTH 10 0
BBX 8 8 1 0
BITMAP
3C
62
C1
FF
C0
C0
63
3E
ENDCHAR
STARTCHAR 0066
ENCODING 102
SWIDTH 600 0
DWIDTH 10 0
BBX 7 11 2 0
BITMAP
1E
32
20
20
FC
20
20
20
20
20
FC
ENDCHAR
STARTCHAR 0067
ENCODING 103
SWIDTH 600 0
DWIDTH 10 0
BBX 9 11 1 -3
BITMAP
3B80
6700
C300
8300
8300
C300
6700
3B00
0200
4600
7C00
ENDCHAR
STARTCHAR 0068
ENCODING 104
SWIDTH 600 0
DWIDTH 10 0
BBX 9 11 1 0
BITMAP
C000
4000
4000
5E00
7200
6200
4200
4200
4200
4200
E780
ENDCHAR
STARTCHAR 0069
ENCODING 105
SWIDTH 600 0
DWIDTH 10 0
BBX 7 11 2 0
BITMAP
30
30
00
F0
10
10
10
10
10
10
FE
ENDCHAR
STARTCHAR 006A
ENCODING 106
SWIDTH 600 0
DWIDTH 10 0
BBX 6 14 2 -3
BITMAP
0C
08
00
F8
0C
0C
0C
0C
0C
0C
0C
08
C8
78
ENDCHAR
STARTCHAR 006B
ENCODING 107
SWIDTH 600 0
DWIDTH 10 0
BBX 9 11 1 0
BITMAP
C000
4000
4000
4F00
4600
4C00
5800
7C00
6600
4200
F780
ENDCHAR
STARTCHAR 006C
ENCODING 108
SWIDTH 600 0
DWIDTH 10 0
BBX 8 11 1 0
BITMAP
78
08
08
08
08
08
08
08
08
08
FF
ENDCHAR
STARTCHAR 006D
ENCODING 109
SWIDTH 600 0
DWIDTH 10 0
BBX 10 8 0 0
BITMAP
DB80
6E80
6480
4480
4480
4480
4480
E6C0
ENDCHAR
STARTCHAR 006E
ENCODING 110
SWIDTH 600 0
DWIDTH 10 0
BBX 9 8 1 0
BITMAP
DE00
7200
6200
4300
4300
4300
4300
F780
ENDCHAR
STARTCHAR 006F
ENCODING 111
SWIDTH 600 0
DWIDTH 10 0
BBX 8 8 1 0
BITMAP
3C
66
C3
81
81
C3
66
3C
ENDCHAR
STARTCHAR 0070
ENCODING 112
SWIDTH 600 0
DWIDTH 10 0
BBX 9 11 0 -3
BITMAP
EE00
3100
2080
2080
2080
2080
3100
2E00
2000
2000
F800
ENDCHAR
STARTCHAR 0071
ENCODING 113
SWIDTH 600 0
DWIDTH 10 0
BBX 9 11 1 -3
BITMAP
3B80
6700
C300
8300
8300
C300
6700
3B00
0300
0300
0F80
ENDCHAR
STARTCHAR 0072
ENCODING 114
SWIDTH 600 0
DWIDTH 10 0
BBX 8 8 1 0
BITMAP
E7
29
30
30
20
20
20
FE
ENDCHAR
STARTCHAR 0073
ENCODING 115
SWIDTH 600 0
DWIDTH 10 0
BBX 8 8 1 0
BITMAP
7A
46
42
7C
0E
C3
E3
FE
ENDCHAR
STARTCHAR 0074
ENCODING 116
SWIDTH 600 0
DWIDTH 10 0
BBX 8 10 1 0
BITMAP
20
20
20
FE
20
20
20
20
33
1E
ENDCHAR
STARTCHAR 0075
ENCODING 117
SWIDTH 600 0
DWIDTH 10 0
BBX 9 8 1 0
BITMAP
CE00
4200
4200
4200
4200
4200
6E00
3B80
ENDCHAR
STARTCHAR 0076
ENCODING 118
SWIDTH 600 0
DWIDTH 10 0
BBX 10 8 0 0
BITMAP
F3C0
2180
2100
3300
1200
1A00
0C00
0C00
ENDCHAR
STARTCHAR 0077
ENCODING 119
SWIDTH 600 0
DWIDTH 10 0
BBX 10 8 0 0
BITMAP
E1C0
4080
4C80
4C80
6E80
3300
3300
3300
ENDCHAR
STARTCHAR 0078
ENCODING 120
SWIDTH 600 0
DWIDTH 10 0
BBX 9 8 1 0
BITMAP
F780
6200
3400
1800
1C00
2400
4200
E780
ENDCHAR
STARTCHAR 0079
ENCODING 121
SWIDTH 600 0
DWIDTH 10 0
BBX 10 11 0 -3
BITMAP
F3C0
2180
2100
1300
1200
0E00
0C00
0C00
0800
1800
7000
ENDCHAR
STARTCHAR 007A
ENCODING 122
SWIDTH 600 0
DWIDTH 10 0
BBX 8 8 1 0
BITMAP
7F
46
4C
08
10
33
63
FF
ENDCHAR
STARTCHAR 007B
ENCODING 123
SWIDTH 600 0
DWIDTH 10 0
BBX 7 14 1 -3
BITMAP
0E
18
18
10
10
10
E0
30
10
18
10
10
18
0E
ENDCHAR
STARTCHAR 007C
ENCODING 124
SWIDTH 600 0
DWIDTH 10 0
BBX 2 14 4 -3
BITMAP
C0
C0
C0
C0
C0
C0
C0
C0
C0
C0
C0
C0
C0
C0
ENDCHAR
STARTCHAR 007D
ENCODING 125
SWIDTH 600 0
DWIDTH 10 0
BBX 7 14 2 -3
BITMAP
E0
30
10
10
10
18
06
18
10
10
10
10
30
E0
ENDCHAR
STARTCHAR 007E
ENCODING 126
SWIDTH 600 0
DWIDTH 10 0
BBX 8 2 1 4
BITMAP
71
CE
ENDCHAR
STARTCHAR 00A0
ENCODING 160
SWIDTH 600 0
DWIDTH 10 0
BBX 0 0 0 0
BITMAP
ENDCHAR
STARTCHAR 00A1
ENCODING 161
SWIDTH 600 0
DWIDTH 10 0
BBX 2 11 4 -3
BITMAP
C0
C0
00
00
40
40
C0
C0
C0
C0
C0
ENDCHAR
STARTCHAR 00A2
ENCODING 162
SWIDTH 600 0
DWIDTH 10 0
BBX 8 12 1 -1
BITMAP
08
08
3F
6F
CB
8B
88
C8
4B
3E
08
08
ENDCHAR
STARTCHAR 00A3
ENCODING 163
SWIDTH 600 0
DWIDTH 10 0
BBX 7 10 2 0
BITMAP
78
4C
C4
C0
40
FC
60
60
40
FE
ENDCHAR
STARTCHAR 00A4
ENCODING 164
SWIDTH 600 0
DWIDTH 10 0
BBX 8 9 1 1
BITMAP
81
FF
66
42
43
42
66
7F
81
ENDCHAR
STARTCHAR 00A5
ENCODING 165
SWIDTH 600 0
DWIDTH 10 0
BBX 10 10 0 0
BITMAP
F3C0
2100
3300
7380
0E00
0C00
7F80
0C00
0C00
3F00
ENDCHAR
STARTCHAR 00A6
ENCODING 166
SWIDTH 600 0
DWIDTH 10 0
BBX 2 14 4 -3
BITMAP
C0
C0
C0
C0
C0
C0
00
00
C0
C0
C0
C0
C0
C0
ENDCHAR
STARTCHAR 00A7
ENCODING 167
SWIDTH 600 0
DWIDTH 10 0
BBX 8 12 1 -2
BITMAP
3E
22
62
70
D8
4E
63
1B
0E
46
46
7C
ENDCHAR
STARTCHAR 00A8
ENCODING 168
SWIDTH 600 0
DWIDTH 10 0
BBX 5 2 3 9
BITMAP
98
98
ENDCHAR
STARTCHAR 00A9
ENCODING 169
SWIDTH 600 0
DWIDTH 10 0
BBX 10 10 0 0
BITMAP
1E00
3180
4E80
5240
9040
9040
D040
5E80
6180
1F00
ENDCHAR
STARTCHAR 00AA
ENCODING 170
SWIDTH 600 0
DWIDTH 10 0
BBX 7 6 2 4
BITMAP
F8
0C
7C
8C
8C
76
ENDCHAR
STARTCHAR 00AB
ENCODING 171
SWIDTH 600 0
DWIDTH 10 0
BBX 8 6 1 2
BITMAP
11
22
44
CC
22
11
ENDCHAR
STARTCHAR 00AC
ENCODING 172
SWIDTH 600 0
DWIDTH 10 0
BBX 8 5 1 2
BITMAP
FF
01
01
01
01
ENDCHAR
STARTCHAR 00AD
ENCODING 173
SWIDTH 600 0
DWIDTH 10 0
BBX 6 1 2 3
BITMAP
FC
ENDCHAR
STARTCHAR 00AE
ENCODING 174
SWIDTH 600 0
DWIDTH 10 0
BBX 8 9 1 3
BITMAP
3C
66
D9
A5
A5
99
AD
42
3C
ENDCHAR
STARTCHAR 00AF
ENCODING 175
SWIDTH 600 0
DWIDTH 10 0
BBX 6 1 2 10
BITMAP
FC
ENDCHAR
STARTCHAR 00B0
ENCODING 176
SWIDTH 600 0
DWIDTH 10 0
BBX 5 5 2 6
BITMAP
70
D0
88
98
70
ENDCHAR
STARTCHAR 00B1
ENCODING 177
SWIDTH 600 0
DWIDTH 10 0
BBX 8 8 1 1
BITMAP
08
08
FF
08
08
08
00
FF
ENDCHAR
STARTCHAR 00B2
ENCODING 178
SWIDTH 600 0
DWIDTH 10 0
BBX 6 7 2 4
BITMAP
78
48
48
18
30
64
FC
ENDCHAR
STARTCHAR 00B3
ENCODING 179
SWIDTH 600 0
DWIDTH 10 0
BBX 6 7 2 4
BITMAP
78
48
08
38
0C
8C
78
ENDCHAR
STARTCHAR 00B4
ENCODING 180
SWIDTH 600 0
DWIDTH 10 0
BBX 5 3 3 9
BITMAP
18
30
C0
ENDCHAR
STARTCHAR 00B5
ENCODING 181
SWIDTH 600 0
DWIDTH 10 0
BBX 6 11 2 -3
BITMAP
84
84
84
84
84
84
CC
F4
80
80
80
ENDCHAR
STARTCHAR 00B6
ENCODING 182
SWIDTH 600 0
DWIDTH 10 0
BBX 8 13 1 -3
BITMAP
7F
FA
FA
FA
7A
3A
1A
1A
1A
1A
1A
1A
1A
ENDCHAR
STARTCHAR 00B7
ENCODING 183
SWIDTH 600 0
DWIDTH 10 0
BBX 2 3 4 4
BITMAP
C0
C0
C0
ENDCHAR
STARTCHAR 00B8
ENCODING 184
SWIDTH 600 0
DWIDTH 10 0
BBX 4 4 3 -4
BITMAP
60
70
10
F0
ENDCHAR
STARTCHAR 00B9
ENCODING 185
SWIDTH 600 0
DWIDTH 10 0
BBX 5 7 3 4
BITMAP
60
E0
20
20
20
20
F8
ENDCHAR
STARTCHAR 00BA
ENCODING 186
SWIDTH 600 0
DWIDTH 10 0
BBX 6 6 2 4
BITMAP
78
CC
84
84
CC
78
ENDCHAR
STARTCHAR 00BB
ENCODING 187
SWIDTH 600 0
DWIDTH 10 0
BBX 8 6 1 2
BITMAP
CC
66
33
33
66
CC
ENDCHAR
STARTCHAR 00BC
ENCODING 188
SWIDTH 600 0
DWIDTH 10 0
BBX 10 13 0 -2
BITMAP
6000
A000
2000
2000
F080
0300
0C00
1080
6180
0280
07C0
0080
0080
ENDCHAR
STARTCHAR 00BD
ENCODING 189
SWIDTH 600 0
DWIDTH 10 0
BBX 10 13 0 -2
BITMAP
E000
2000
2000
2080
F180
0600
0C00
3380
6240
0040
0080
0340
03C0
ENDCHAR
STARTCHAR 00BE
ENCODING 190
SWIDTH 600 0
DWIDTH 10 0
BBX 10 14 0 -2
BITMAP
F000
9000
1000
3000
1000
F180
0200
0C00
3080
4180
0280
07C0
0080
0080
ENDCHAR
STARTCHAR 00BF
ENCODING 191
SWIDTH 600 0
DWIDTH 10 0
BBX 6 11 2 -3
BITMAP
30
30
00
00
10
30
60
C0
84
C4
78
ENDCHAR
STARTCHAR 00C0
ENCODING 192
SWIDTH 600 0
DWIDTH 10 0
BBX 10 14 0 0
BITMAP
3000
1800
0400
0000
3C00
0C00
1A00
1200
1300
3100
3F00
2180
4080
F3C0
ENDCHAR
STARTCHAR 00C1
ENCODING 193
SWIDTH 600 0
DWIDTH 10 0
BBX 10 14 0 0
BITMAP
0600
0C00
1800
0000
3C00
0C00
1A00
1200
1300
3100
3F00
2180
4080
F3C0
ENDCHAR
STARTCHAR 00C2
ENCODING 194
SWIDTH 600 0
DWIDTH 10 0
BBX 10 14 0 0
BITMAP
0C00
1E00
3300
0000
3C00
0C00
1A00
1200
1300
3100
3F00
2180
4080
F3C0
ENDCHAR
STARTCHAR 00C3
ENCODING 195
SWIDTH 600 0
DWIDTH 10 0
BBX 10 13 0 0
BITMAP
1900
2E00
0000
3C00
0C00
1A00
1200
1300
3100
3F00
2180
4080
F3C0
ENDCHAR
STARTCHAR 00C4
ENCODING 196
SWIDTH 600 0
DWIDTH 10 0
BBX 10 13 0 0
BITMAP
3200
3200
0000
3C00
0C00
1A00
1200
1300
3100
3F00
2180
4080
F3C0
ENDCHAR
STARTCHAR 00C5
ENCODING 197
SWIDTH 600 0
DWIDTH 10 0
BBX 10 15 0 0
BITMAP
1C00
1200
1200
1C00
0000
3C00
0C00
1A00
1200
1300
3100
3F00
2180
4080
F3C0
ENDCHAR
STARTCHAR 00C6
ENCODING 198
SWIDTH 600 0
DWIDTH 10 0
BBX 9 10 0 0
BITMAP
3F80
1480
1480
1400
3700
2400
3C00
6480
4480
E780
ENDCHAR
STARTCHAR 00C7
ENCODING 199
SWIDTH 600 0
DWIDTH 10 0
BBX 8 14 1 -4
BITMAP
3D
63
43
C1
80
80
80
C0
61
3E
08
0C
04
3C
ENDCHAR
STARTCHAR 00C8
ENCODING 200
SWIDTH 600 0
DWIDTH 10 0
BBX 8 14 1 0
BITMAP
30
18
0C
00
FF
41
41
4C
7C
4C
4C
41
41
FF
ENDCHAR
STARTCHAR 00C9
ENCODING 201
SWIDTH 600 0
DWIDTH 10 0
BBX 8 14 1 0
BITMAP
04
1C
30
00
FF
41
41
4C
7C
4C
4C
41
41
FF
ENDCHAR
STARTCHAR 00CA
ENCODING 202
SWIDTH 600 0
DWIDTH 10 0
BBX 8 14 1 0
BITMAP
08
3C
22
00
FF
41
41
4C
7C
4C
4C
41
41
FF
ENDCHAR
STARTCHAR 00CB
ENCODING 203
SWIDTH 600 0
DWIDTH 10 0
BBX 8 13 1 0
BITMAP
26
26
00
FF
41
41
4C
7C
4C
4C
41
41
FF
ENDCHAR
STARTCHAR 00CC
ENCODING 204
SWIDTH 600 0
DWIDTH 10 0
BBX 7 14 2 0
BITMAP
40
70
18
00
FC
30
30
30
30
30
30
30
30
FE
ENDCHAR
STARTCHAR 00CD
ENCODING 205
SWIDTH 600 0
DWIDTH 10 0
BBX 7 14 2 0
BITMAP
0C
18
60
00
FC
30
30
30
30
30
30
30
30
FE
ENDCHAR
STARTCHAR 00CE
ENCODING 206
SWIDTH 600 0
DWIDTH 10 0
BBX 7 14 2 0
BITMAP
30
78
CC
00
FC
30
30
30
30
30
30
30
30
FE
ENDCHAR
STARTCHAR 00CF
ENCODING 207
SWIDTH 600 0
DWIDTH 10 0
BBX 7 13 2 0
BITMAP
4C
4C
00
FC
30
30
30
30
30
30
30
30
FE
ENDCHAR
STARTCHAR 00D0
ENCODING 208
SWIDTH 600 0
DWIDTH 10 0
BBX 9 10 0 0
BITMAP
7E00
2300
2180
2080
F880
2080
2080
2180
2300
7E00
ENDCHAR
STARTCHAR 00D1
ENCODING 209
SWIDTH 600 0
DWIDTH 10 0
BBX 9 13 1 0
BITMAP
3200
6E00
0000
E780
6300
7300
5300
5B00
4B00
4700
4700
4300
F300
ENDCHAR
STARTCHAR 00D2
ENCODING 210
SWIDTH 600 0
DWIDTH 10 0
BBX 8 14 1 0
BITMAP
20
18
0C
00
3C
66
C3
81
81
81
81
C3
66
3C
ENDCHAR
STARTCHAR 00D3
ENCODING 211
SWIDTH 600 0
DWIDTH 10 0
BBX 8 14 1 0
BITMAP
04
1C
30
00
3C
66
C3
81
81
81
81
C3
66
3C
ENDCHAR
STARTCHAR 00D4
ENCODING 212
SWIDTH 600 0
DWIDTH 10 0
BBX 8 14 1 0
BITMAP
18
3C
66
00
3C
66
C3
81
81
81
81
C3
66
3C
ENDCHAR
STARTCHAR 00D5
ENCODING 213
SWIDTH 600 0
DWIDTH 10 0
BBX 8 13 1 0
BITMAP
32
6E
00
3C
66
C3
81
81
81
81
C3
66
3C
ENDCHAR
STARTCHAR 00D6
ENCODING 214
SWIDTH 600 0
DWIDTH 10 0
BBX 8 13 1 0
BITMAP
26
26
00
3C
66
C3
81
81
81
81
C3
66
3C
ENDCHAR
STARTCHAR 00D7
ENCODING 215
SWIDTH 600 0
DWIDTH 10 0
BBX 6 6 2 2
BITMAP
84
48
30
30
48
84
ENDCHAR
STARTCHAR 00D8
ENCODING 216
SWIDTH 600 0
DWIDTH 10 0
BBX 8 11 1 0
BITMAP
01
3D
66
C7
85
89
91
B1
E3
66
FC
ENDCHAR
STARTCHAR 00D9
ENCODING 217
SWIDTH 600 0
DWIDTH 10 0
BBX 9 14 1 0
BITMAP
2000
3800
0C00
0000
E780
4300
4300
4300
4300
4300
4300
4300
6600
3C00
ENDCHAR
STARTCHAR 00DA
ENCODING 218
SWIDTH 600 0
DWIDTH 10 0
BBX 9 14 1 0
BITMAP
0600
0C00
3000
0000
E780
4300
4300
4300
4300
4300
4300
4300
6600
3C00
ENDCHAR
STARTCHAR 00DB
ENCODING 219
SWIDTH 600 0
DWIDTH 10 0
BBX 9 14 1 0
BITMAP
1800
3C00
6600
0000
E780
4300
4300
4300
4300
4300
4300
4300
6600
3C00
ENDCHAR
STARTCHAR 00DC
ENCODING 220
SWIDTH 600 0
DWIDTH 10 0
BBX 9 13 1 0
BITMAP
2600
2600
0000
E780
4300
4300
4300
4300
4300
4300
4300
6600
3C00
ENDCHAR
STARTCHAR 00DD
ENCODING 221
SWIDTH 600 0
DWIDTH 10 0
BBX 10 14 0 0
BITMAP
0300
0600
0800
0000
F3C0
2100
3300
1200
0E00
0C00
0C00
0C00
0C00
3F00
ENDCHAR
STARTCHAR 00DE
ENCODING 222
SWIDTH 600 0
DWIDTH 10 0
BBX 8 10 1 0
BITMAP
F8
20
3E
23
21
21
23
3E
20
F8
ENDCHAR
STARTCHAR 00DF
ENCODING 223
SWIDTH 600 0
DWIDTH 10 0
BBX 9 11 0 0
BITMAP
1E00
3300
2100
2100
2300
2700
2100
2180
2180
2300
E600
ENDCHAR
STARTCHAR 00E0
ENCODING 224
SWIDTH 600 0
DWIDTH 10 0
BBX 9 12 1 0
BITMAP
3000
1800
0400
0000
3C00
4600
0200
7E00
C200
8200
CE00
7B80
ENDCHAR
STARTCHAR 00E1
ENCODING 225
SWIDTH 600 0
DWIDTH 10 0
BBX 9 12 1 0
BITMAP
0C00
1800
3000
0000
3C00
4600
0200
7E00
C200
8200
CE00
7B80
ENDCHAR
STARTCHAR 00E2
ENCODING 226
SWIDTH 600 0
DWIDTH 10 0
BBX 9 12 1 0
BITMAP
1800
3C00
6600
0000
3C00
4600
0200
7E00
C200
8200
CE00
7B80
ENDCHAR
STARTCHAR 00E3
ENCODING 227
SWIDTH 600 0
DWIDTH 10 0
BBX 9 11 1 0
BITMAP
3200
6E00
0000
3C00
4600
0200
7E00
C200
8200
CE00
7B80
ENDCHAR
STARTCHAR 00E4
ENCODING 228
SWIDTH 600 0
DWIDTH 10 0
BBX 9 11 1 0
BITMAP
2600
2600
0000
3C00
4600
0200
7E00
C200
8200
CE00
7B80
ENDCHAR
STARTCHAR 00E5
ENCODING 229
SWIDTH 600 0
DWIDTH 10 0
BBX 9 13 1 0
BITMAP
1C00
2400
2400
1C00
0000
3C00
4600
0200
7E00
C200
8200
CE00
7B80
ENDCHAR
STARTCHAR 00E6
ENCODING 230
SWIDTH 600 0
DWIDTH 10 0
BBX 9 8 1 0
BITMAP
7700
9900
1900
7F80
D800
9800
9900
E700
ENDCHAR
STARTCHAR 00E7
ENCODING 231
SWIDTH 600 0
DWIDTH 10 0
BBX 8 12 1 -4
BITMAP
3F
67
C3
83
80
C0
43
3E
18
1C
04
3C
ENDCHAR
STARTCHAR 00E8
ENCODING 232
SWIDTH 600 0
DWIDTH 10 0
BBX 8 12 1 0
BITMAP
30
18
04
00
3C
62
C1
FF
C0
C0
63
3E
ENDCHAR
STARTCHAR 00E9
ENCODING 233
SWIDTH 600 0
DWIDTH 10 0
BBX 8 12 1 0
BITMAP
04
1C
30
00
3C
62
C1
FF
C0
C0
63
3E
ENDCHAR
STARTCHAR 00EA
ENCODING 234
SWIDTH 600 0
DWIDTH 10 0
BBX 8 12 1 0
BITMAP
18
3C
22
00
3C
62
C1
FF
C0
C0
63
3E
ENDCHAR
STARTCHAR 00EB
ENCODING 235
SWIDTH 600 0
DWIDTH 10 0
BBX 8 11 1 0
BITMAP
26
26
00
3C
62
C1
FF
C0
C0
63
3E
ENDCHAR
STARTCHAR 00EC
ENCODING 236
SWIDTH 600 0
DWIDTH 10 0
BBX 7 12 2 0
BITMAP
C0
60
10
00
F0
10
10
10
10
10
10
FE
ENDCHAR
STARTCHAR 00ED
ENCODING 237
SWIDTH 600 0
DWIDTH 10 0
BBX 7 12 2 0
BITMAP
18
30
60
00
F0
10
10
10
10
10
10
FE
ENDCHAR
STARTCHAR 00EE
ENCODING 238
SWIDTH 600 0
DWIDTH 10 0
BBX 7 12 2 0
BITMAP
30
78
CC
00
F0
10
10
10
10
10
10
FE
ENDCHAR
STARTCHAR 00EF
ENCODING 239
SWIDTH 600 0
DWIDTH 10 0
BBX 7 11 2 0
BITMAP
4C
4C
00
F0
10
10
10
10
10
10
FE
ENDCHAR
STARTCHAR 00F0
ENCODING 240
SWIDTH 600 0
DWIDTH 10 0
BBX 8 11 1 0
BITMAP
36
3C
26
3E
67
C3
C1
C1
C3
66
3C
ENDCHAR
STARTCHAR 00F1
ENCODING 241
SWIDTH 600 0
DWIDTH 10 0
BBX 9 11 1 0
BITMAP
3200
6E00
0000
DE00
7200
6200
4300
4300
4300
4300
F780
ENDCHAR
STARTCHAR 00F2
ENCODING 242
SWIDTH 600 0
DWIDTH 10 0
BBX 8 12 1 0
BITMAP
20
18
0C
00
3C
66
C3
81
81
C3
66
3C
ENDCHAR
STARTCHAR 00F3
ENCODING 243
SWIDTH 600 0
DWIDTH 10 0
BBX 8 12 1 0
BITMAP
04
1C
30
00
3C
66
C3
81
81
C3
66
3C
ENDCHAR
STARTCHAR 00F4
ENCODING 244
SWIDTH 600 0
DWIDTH 10 0
BBX 8 12 1 0
BITMAP
18
3C
66
00
3C
66
C3
81
81
C3
66
3C
ENDCHAR
STARTCHAR 00F5
ENCODING 245
SWIDTH 600 0
DWIDTH 10 0
BBX 8 11 1 0
BITMAP
32
6E
00
3C
66
C3
81
81
C3
66
3C
ENDCHAR
STARTCHAR 00F6
ENCODING 246
SWIDTH 600 0
DWIDTH 10 0
BBX 8 11 1 0
BITMAP
26
26
00
3C
66
C3
81
81
C3
66
3C
ENDCHAR
STARTCHAR 00F7
ENCODING 247
SWIDTH 600 0
DWIDTH 10 0
BBX 8 8 1 1
BITMAP
18
18
00
FF
00
00
18
18
ENDCHAR
STARTCHAR 00F8
ENCODING 248
SWIDTH 600 0
DWIDTH 10 0
BBX 9 8 1 0
BITMAP
3D80
6700
C700
8900
9100
E300
6600
BC00
ENDCHAR
STARTCHAR 00F9
ENCODING 249
SWIDTH 600 0
DWIDTH 10 0
BBX 9 12 1 0
BITMAP
2000
3800
0C00
0000
CE00
4200
4200
4200
4200
4200
6E00
3B80
ENDCHAR
STARTCHAR 00FA
ENCODING 250
SWIDTH 600 0
DWIDTH 10 0
BBX 9 12 1 0
BITMAP
0600
1C00
3000
0000
CE00
4200
4200
4200
4200
4200
6E00
3B80
ENDCHAR
STARTCHAR 00FB
ENCODING 251
SWIDTH 600 0
DWIDTH 10 0
BBX 9 12 1 0
BITMAP
1800
3C00
6600
0000
CE00
4200
4200
4200
4200
4200
6E00
3B80
ENDCHAR
STARTCHAR 00FC
ENCODING 252
SWIDTH 600 0
DWIDTH 10 0
BBX 9 11 1 0
BITMAP
6400
6400
0000
CE00
4200
4200
4200
4200
4200
6E00
3B80
ENDCHAR
STARTCHAR 00FD
ENCODING 253
SWIDTH 600 0
DWIDTH 10 0
BBX 10 15 0 -3
BITMAP
0300
0600
1800
0000
F3C0
2180
2100
1300
1200
0E00
0C00
0C00
0800
1800
7000
ENDCHAR
STARTCHAR 00FE
ENCODING 254
SWIDTH 600 0
DWIDTH 10 0
BBX 9 14 0 -3
BITMAP
E000
2000
2000
2E00
3100
2080
2080
2080
2080
3100
2E00
2000
2000
F800
ENDCHAR
STARTCHAR 00FF
ENCODING 255
SWIDTH 600 0
DWIDTH 10 0
BBX 10 14 0 -3
BITMAP
1300
1300
0000
F3C0
2180
2100
1300
1200
0E00
0C00
0C00
0800
1800
7000
ENDCHAR
STARTCHAR 0100
ENCODING 256
SWIDTH 600 0
DWIDTH 10 0
BBX 10 13 0 0
BITMAP
3E00
0000
0000
3C00
0C00
1A00
1200
1300
3100
3F00
2180
4080
F3C0
ENDCHAR
STARTCHAR 0101
ENCODING 257
SWIDTH 600 0
DWIDTH 10 0
BBX 9 11 1 0
BITMAP
7E00
0000
0000
3C00
4600
0200
7E00
C200
8200
CE00
7B80
ENDCHAR
STARTCHAR 0102
ENCODING 258
SWIDTH 600 0
DWIDTH 10 0
BBX 10 13 0 0
BITMAP
3300
1E00
0000
3C00
0C00
1A00
1200
1300
3100
3F00
2180
4080
F3C0
ENDCHAR
STARTCHAR 0103
ENCODING 259
SWIDTH 600 0
DWIDTH 10 0
BBX 9 11 1 0
BITMAP
6600
3C00
0000
3C00
4600
0200
7E00
C200
8200
CE00
7B80
ENDCHAR
STARTCHAR 0104
ENCODING 260
SWIDTH 600 0
DWIDTH 10 0
BBX 10 14 0 -4
BITMAP
3C00
0C00
1A00
1200
1300
3100
3F00
2180
4080
F3C0
0180
0100
0300
01C0
ENDCHAR
STARTCHAR 0105
ENCODING 261
SWIDTH 600 0
DWIDTH 10 0
BBX 9 12 1 -4
BITMAP
3C00
4600
0200
7E00
C200
8200
CE00
7980
0200
0600
0600
0780
ENDCHAR
STARTCHAR 0106
ENCODING 262
SWIDTH 600 0
DWIDTH 10 0
BBX 8 14 1 0
BITMAP
06
0C
10
00
3D
63
C3
81
80
80
80
C0
63
3E
ENDCHAR
STARTCHAR 0107
ENCODING 263
SWIDTH 600 0
DWIDTH 10 0
BBX 8 12 1 0
BITMAP
06
1C
30
00
3F
67
C3
83
80
C0
63
3E
ENDCHAR
STARTCHAR 0108
ENCODING 264
SWIDTH 600 0
DWIDTH 10 0
BBX 8 14 1 0
BITMAP
08
1C
22
00
3D
63
C3
81
80
80
80
C0
63
3E
ENDCHAR
STARTCHAR 0109
ENCODING 265
SWIDTH 600 0
DWIDTH 10 0
BBX 8 12 1 0
BITMAP
18
3C
26
00
3F
67
C3
83
80
C0
63
3E
ENDCHAR
STARTCHAR 010A
ENCODING 266
SWIDTH 600 0
DWIDTH 10 0
BBX 8 13 1 0
BITMAP
18
18
00
3D
63
C3
81
80
80
80
C0
63
3E
ENDCHAR
STARTCHAR 010B
ENCODING 267
SWIDTH 600 0
DWIDTH 10 0
BBX 8 11 1 0
BITMAP
18
18
00
3F
67
C3
83
80
C0
63
3E
ENDCHAR
STARTCHAR 010C
ENCODING 268
SWIDTH 600 0
DWIDTH 10 0
BBX 8 14 1 0
BITMAP
22
3C
08
00
3D
63
C3
81
80
80
80
C0
63
3E
ENDCHAR
STARTCHAR 010D
ENCODING 269
SWIDTH 600 0
DWIDTH 10 0
BBX 8 12 1 0
BITMAP
22
3C
18
00
3F
67
C3
83
80
C0
63
3E
ENDCHAR
STARTCHAR 010E
ENCODING 270
SWIDTH 600 0
DWIDTH 10 0
BBX 8 14 1 0
BITMAP
66
3C
18
00
FC
46
43
41
41
41
41
43
46
FC
ENDCHAR
STARTCHAR 010F
ENCODING 271
SWIDTH 600 0
DWIDTH 10 0
BBX 10 11 1 0
BITMAP
0EC0
06C0
0680
3E80
4E00
C600
8600
8600
C600
4E00
3B00
ENDCHAR
STARTCHAR 0110
ENCODING 272
SWIDTH 600 0
DWIDTH 10 0
BBX 8 10 1 0
BITMAP
FC
46
43
41
F9
41
41
43
46
FC
ENDCHAR
STARTCHAR 0111
ENCODING 273
SWIDTH 600 0
DWIDTH 10 0
BBX 9 11 1 0
BITMAP
0E00
0200
1F80
3A00
6600
C200
C200
C200
C200
6600
3B80
ENDCHAR
STARTCHAR 0112
ENCODING 274
SWIDTH 600 0
DWIDTH 10 0
BBX 8 13 1 0
BITMAP
3E
00
00
FF
41
41
4C
7C
4C
4C
41
41
FF
ENDCHAR
STARTCHAR 0113
ENCODING 275
SWIDTH 600 0
DWIDTH 10 0
BBX 8 11 1 0
BITMAP
3E
00
00
3C
62
C1
FF
C0
C0
63
3E
ENDCHAR
STARTCHAR 0114
ENCODING 276
SWIDTH 600 0
DWIDTH 10 0
BBX 8 13 1 0
BITMAP
66
3C
00
FF
41
41
4C
7C
4C
4C
41
41
FF
ENDCHAR
STARTCHAR 0115
ENCODING 277
SWIDTH 600 0
DWIDTH 10 0
BBX 8 11 1 0
BITMAP
22
3C
00
3C
62
C1
FF
C0
C0
63
3E
ENDCHAR
STARTCHAR 0116
ENCODING 278
SWIDTH 600 0
DWIDTH 10 0
BBX 8 13 1 0
BITMAP
18
18
00
FF
41
41
4C
7C
4C
4C
41
41
FF
ENDCHAR
STARTCHAR 0117
ENCODING 279
SWIDTH 600 0
DWIDTH 10 0
BBX 8 11 1 0
BITMAP
18
18
00
3C
62
C1
FF
C0
C0
63
3E
ENDCHAR
STARTCHAR 0118
ENCODING 280
SWIDTH 600 0
DWIDTH 10 0
BBX 8 14 1 -4
BITMAP
FF
41
41
4C
7C
4C
4D
41
41
FF
02
04
04
07
ENDCHAR
STARTCHAR 0119
ENCODING 281
SWIDTH 600 0
DWIDTH 10 0
BBX 8 12 1 -4
BITMAP
3C
62
C1
FF
C0
C0
63
3E
04
0C
08
0E
ENDCHAR
STARTCHAR 011A
ENCODING 282
SWIDTH 600 0
DWIDTH 10 0
BBX 8 14 1 0
BITMAP
66
3C
18
00
FF
41
41
4C
7C
4C
4C
41
41
FF
ENDCHAR
STARTCHAR 011B
ENCODING 283
SWIDTH 600 0
DWIDTH 10 0
BBX 8 12 1 0
BITMAP
22
3C
18
00
3C
62
C1
FF
C0
C0
63
3E
ENDCHAR
STARTCHAR 011C
ENCODING 284
SWIDTH 600 0
DWIDTH 10 0
BBX 9 14 1 0
BITMAP
0800
3C00
2200
0000
3D00
6300
C100
8000
8000
8F80
8100
C100
6300
3E00
ENDCHAR
STARTCHAR 011D
ENCODING 285
SWIDTH 600 0
DWIDTH 10 0
BBX 9 15 1 -3
BITMAP
1800
3C00
6600
0000
3B80
6700
C300
8300
8300
C300
6700
3B00
0200
4600
7C00
ENDCHAR
STARTCHAR 011E
ENCODING 286
SWIDTH 600 0
DWIDTH 10 0
BBX 9 13 1 0
BITMAP
6200
3C00
0000
3D00
6300
C100
8000
8000
8F80
8100
C100
6300
3E00
ENDCHAR
STARTCHAR 011F
ENCODING 287
SWIDTH 600 0
DWIDTH 10 0
BBX 9 14 1 -3
BITMAP
6600
3C00
0000
3B80
6700
C300
8300
8300
C300
6700
3B00
0200
4600
7C00
ENDCHAR
STARTCHAR 0120
ENCODING 288
SWIDTH 600 0
DWIDTH 10 0
BBX 9 13 1 0
BITMAP
1800
1800
0000
3D00
6300
C100
8000
8000
8F80
8100
C100
6300
3E00
ENDCHAR
STARTCHAR 0121
ENCODING 289
SWIDTH 600 0
DWIDTH 10 0
BBX 9 14 1 -3
BITMAP
1800
1800
0000
3B80
6700
C300
8300
8300
C300
6700
3B00
0200
4600
7C00
ENDCHAR
STARTCHAR 0122
ENCODING 290
SWIDTH 600 0
DWIDTH 10 0
BBX 9 14 1 -4
BITMAP
3D00
6300
C100
8000
8000
8F80
8100
C100
6300
3E00
0000
1800
1800
1000
ENDCHAR
STARTCHAR 0123
ENCODING 291
SWIDTH 600 0
DWIDTH 10 0
BBX 9 16 1 -3
BITMAP
0800
0800
1800
0000
0000
3B80
6700
C300
8300
8300
C300
6700
3B00
0200
4600
7C00
ENDCHAR
STARTCHAR 0124
ENCODING 292
SWIDTH 600 0
DWIDTH 10 0
BBX 9 14 1 0
BITMAP
1800
3C00
6600
0000
E780
4200
4200
4200
7E00
4200
4200
4200
4200
E780
ENDCHAR
STARTCHAR 0125
ENCODING 293
SWIDTH 600 0
DWIDTH 10 0
BBX 9 15 1 0
BITMAP
1800
3C00
6600
0000
C000
4000
4000
5E00
7200
6200
4200
4200
4200
4200
E780
ENDCHAR
STARTCHAR 0126
ENCODING 294
SWIDTH 600 0
DWIDTH 10 0
BBX 10 10 0 0
BITMAP
73C0
2100
FFC0
2100
3F00
2100
2100
2100
2100
73C0
ENDCHAR
STARTCHAR 0127
ENCODING 295
SWIDTH 600 0
DWIDTH 10 0
BBX 10 11 0 0
BITMAP
6000
2000
FC00
2E00
3900
3100
2100
2100
2100
2100
73C0
ENDCHAR
STARTCHAR 0128
ENCODING 296
SWIDTH 600 0
DWIDTH 10 0
BBX 7 13 2 0
BITMAP
64
DC
00
FC
30
30
30
30
30
30
30
30
FE
ENDCHAR
STARTCHAR 0129
ENCODING 297
SWIDTH 600 0
DWIDTH 10 0
BBX 7 11 2 0
BITMAP
64
98
00
F0
10
10
10
10
10
10
FE
ENDCHAR
STARTCHAR 012A
ENCODING 298
SWIDTH 600 0
DWIDTH 10 0
BBX 7 13 2 0
BITMAP
FC
00
00
FC
30
30
30
30
30
30
30
30
FE
ENDCHAR
STARTCHAR 012B
ENCODING 299
SWIDTH 600 0
DWIDTH 10 0
BBX 7 11 2 0
BITMAP
FC
00
00
F0
10
10
10
10
10
10
FE
ENDCHAR
STARTCHAR 012C
ENCODING 300
SWIDTH 600 0
DWIDTH 10 0
BBX 7 13 2 0
BITMAP
CC
78
00
FC
30
30
30
30
30
30
30
30
FE
ENDCHAR
STARTCHAR 012D
ENCODING 301
SWIDTH 600 0
DWIDTH 10 0
BBX 7 11 2 0
BITMAP
CC
78
00
F0
10
10
10
10
10
10
FE
ENDCHAR
STARTCHAR 012E
ENCODING 302
SWIDTH 600 0
DWIDTH 10 0
BBX 7 14 2 -4
BITMAP
FC
30
30
30
30
30
30
30
30
FE
20
60
40
70
ENDCHAR
STARTCHAR 012F
ENCODING 303
SWIDTH 600 0
DWIDTH 10 0
BBX 7 15 2 -4
BITMAP
30
30
00
F0
10
10
10
10
10
10
FE
20
60
60
78
ENDCHAR
STARTCHAR 0130
ENCODING 304
SWIDTH 600 0
DWIDTH 10 0
BBX 7 13 2 0
BITMAP
30
30
00
FC
30
30
30
30
30
30
30
30
FE
ENDCHAR
STARTCHAR 0131
ENCODING 305
SWIDTH 600 0
DWIDTH 10 0
BBX 7 8 2 0
BITMAP
F0
10
10
10
10
10
10
FE
ENDCHAR
STARTCHAR 0132
ENCODING 306
SWIDTH 600 0
DWIDTH 10 0
BBX 10 10 0 0
BITMAP
F3C0
6080
6080
6080
6080
6080
6480
6480
6580
F700
ENDCHAR
STARTCHAR 0133
ENCODING 307
SWIDTH 600 0
DWIDTH 10 0
BBX 9 14 0 -3
BITMAP
3180
3180
0000
7780
3080
3080
3080
3080
3080
3080
FC80
0080
1980
0F00
ENDCHAR
STARTCHAR 0134
ENCODING 308
SWIDTH 600 0
DWIDTH 10 0
BBX 9 14 1 0
BITMAP
0400
0E00
1100
0000
3F80
0400
0400
0400
0400
8400
8400
8400
CC00
7800
ENDCHAR
STARTCHAR 0135
ENCODING 309
SWIDTH 600 0
DWIDTH 10 0
BBX 7 15 2 -3
BITMAP
18
3C
66
00
F8
0C
0C
0C
0C
0C
0C
0C
08
C8
78
ENDCHAR
STARTCHAR 0136
ENCODING 310
SWIDTH 600 0
DWIDTH 10 0
BBX 9 14 1 -4
BITMAP
F780
4200
4C00
5800
7C00
6400
4600
4200
4300
F180
0000
1800
1800
1000
ENDCHAR
STARTCHAR 0137
ENCODING 311
SWIDTH 600 0
DWIDTH 10 0
BBX 9 15 1 -4
BITMAP
C000
4000
4000
4F00
4600
4C00
5800
7C00
6600
4200
F780
0000
1800
1000
1000
ENDCHAR
STARTCHAR 0139
ENCODING 313
SWIDTH 600 0
DWIDTH 10 0
BBX 8 14 1 0
BITMAP
18
30
40
00
F8
20
20
20
20
20
21
21
21
FF
ENDCHAR
STARTCHAR 013A
ENCODING 314
SWIDTH 600 0
DWIDTH 10 0
BBX 8 15 1 0
BITMAP
04
1C
30
00
78
08
08
08
08
08
08
08
08
08
FF
ENDCHAR
STARTCHAR 013B
ENCODING 315
SWIDTH 600 0
DWIDTH 10 0
BBX 8 14 1 -4
BITMAP
F8
20
20
20
20
20
21
21
21
FF
00
18
10
10
ENDCHAR
STARTCHAR 013C
ENCODING 316
SWIDTH 600 0
DWIDTH 10 0
BBX 8 15 1 -4
BITMAP
78
08
08
08
08
08
08
08
08
08
FF
00
18
10
10
ENDCHAR
STARTCHAR 013D
ENCODING 317
SWIDTH 600 0
DWIDTH 10 0
BBX 8 10 1 0
BITMAP
F9
21
23
22
20
20
21
21
21
FF
ENDCHAR
STARTCHAR 013E
ENCODING 318
SWIDTH 600 0
DWIDTH 10 0
BBX 8 11 1 0
BITMAP
79
19
1B
1A
18
18
18
18
18
18
FF
ENDCHAR
STARTCHAR 013F
ENCODING 319
SWIDTH 600 0
DWIDTH 10 0
BBX 8 10 1 0
BITMAP
F8
20
20
2C
2C
21
21
21
21
FF
ENDCHAR
STARTCHAR 0140
ENCODING 320
SWIDTH 600 0
DWIDTH 10 0
BBX 8 11 1 0
BITMAP
78
18
18
18
1B
1B
18
18
18
18
FF
ENDCHAR
STARTCHAR 0141
ENCODING 321
SWIDTH 600 0
DWIDTH 10 0
BBX 9 10 0 0
BITMAP
7C00
1000
1000
1C00
1800
3000
D080
1080
1080
7F80
ENDCHAR
STARTCHAR 0142
ENCODING 322
SWIDTH 600 0
DWIDTH 10 0
BBX 8 11 1 0
BITMAP
78
08
08
0A
0C
18
68
08
08
08
FF
ENDCHAR
STARTCHAR 0143
ENCODING 323
SWIDTH 600 0
DWIDTH 10 0
BBX 9 14 1 0
BITMAP
0600
1C00
3000
0000
E780
6300
7300
5300
5B00
4B00
4700
4700
4300
F300
ENDCHAR
STARTCHAR 0144
ENCODING 324
SWIDTH 600 0
DWIDTH 10 0
BBX 9 12 1 0
BITMAP
0600
1C00
3000
0000
DE00
7200
6200
4300
4300
4300
4300
F780
ENDCHAR
STARTCHAR 0145
ENCODING 325
SWIDTH 600 0
DWIDTH 10 0
BBX 9 14 1 -4
BITMAP
E780
6300
7300
5300
5B00
4B00
4700
4700
4300
F300
0000
1800
1000
1000
ENDCHAR
STARTCHAR 0146
ENCODING 326
SWIDTH 600 0
DWIDTH 10 0
BBX 9 12 1 -4
BITMAP
DE00
7200
6200
4300
4300
4300
4300
F780
0000
1800
1000
1000
ENDCHAR
STARTCHAR 0147
ENCODING 327
SWIDTH 600 0
DWIDTH 10 0
BBX 9 14 1 0
BITMAP
6600
3C00
1800
0000
E780
6300
7300
5300
5B00
4B00
4700
4700
4300
F300
ENDCHAR
STARTCHAR 0148
ENCODING 328
SWIDTH 600 0
DWIDTH 10 0
BBX 9 12 1 0
BITMAP
6600
3C00
1800
0000
DE00
7200
6200
4300
4300
4300
4300
F780
ENDCHAR
STARTCHAR 014A
ENCODING 330
SWIDTH 600 0
DWIDTH 10 0
BBX 9 13 1 -3
BITMAP
E780
6300
7300
5300
5B00
4B00
4F00
4700
4300
F300
0300
1300
1E00
ENDCHAR
STARTCHAR 014B
ENCODING 331
SWIDTH 600 0
DWIDTH 10 0
BBX 8 11 1 -3
BITMAP
CE
52
63
63
43
43
43
F3
03
13
1E
ENDCHAR
STARTCHAR 014C
ENCODING 332
SWIDTH 600 0
DWIDTH 10 0
BBX 8 13 1 0
BITMAP
7E
00
00
3C
66
C3
81
81
81
81
C3
66
3C
ENDCHAR
STARTCHAR 014D
ENCODING 333
SWIDTH 600 0
DWIDTH 10 0
BBX 8 11 1 0
BITMAP
7E
00
00
3C
66
C3
81
81
C3
66
3C
ENDCHAR
STARTCHAR 014E
ENCODING 334
SWIDTH 600 0
DWIDTH 10 0
BBX 8 13 1 0
BITMAP
66
3C
00
3C
66
C3
81
81
81
81
C3
66
3C
ENDCHAR
STARTCHAR 014F
ENCODING 335
SWIDTH 600 0
DWIDTH 10 0
BBX 8 11 1 0
BITMAP
66
3C
00
3C
66
C3
81
81
C3
66
3C
ENDCHAR
STARTCHAR 0150
ENCODING 336
SWIDTH 600 0
DWIDTH 10 0
BBX 8 14 1 0
BITMAP
19
32
24
00
3C
66
C3
81
81
81
81
C3
66
3C
ENDCHAR
STARTCHAR 0151
ENCODING 337
SWIDTH 600 0
DWIDTH 10 0
BBX 8 12 1 0
BITMAP
19
32
24
00
3C
66
C3
81
81
C3
66
3C
ENDCHAR
STARTCHAR 0152
ENCODING 338
SWIDTH 600 0
DWIDTH 10 0
BBX 8 10 1 0
BITMAP
3F
49
89
88
8E
88
89
89
49
3F
ENDCHAR
STARTCHAR 0153
ENCODING 339
SWIDTH 600 0
DWIDTH 10 0
BBX 9 8 1 0
BITMAP
7700
9900
9900
9F80
9800
9800
9900
7700
ENDCHAR
STARTCHAR 0154
ENCODING 340
SWIDTH 600 0
DWIDTH 10 0
BBX 9 14 1 0
BITMAP
0400
1C00
3000
0000
FE00
4200
4300
4200
7E00
4400
4600
4200
4300
F180
ENDCHAR
STARTCHAR 0155
ENCODING 341
SWIDTH 600 0
DWIDTH 10 0
BBX 8 12 1 0
BITMAP
06
0C
10
00
E7
29
30
30
20
20
20
FE
ENDCHAR
STARTCHAR 0156
ENCODING 342
SWIDTH 600 0
DWIDTH 10 0
BBX 9 14 1 -4
BITMAP
FE00
4200
4300
4200
7E00
4400
4600
4200
4300
F180
0000
0800
1800
1000
ENDCHAR
STARTCHAR 0157
ENCODING 343
SWIDTH 600 0
DWIDTH 10 0
BBX 8 12 1 -4
BITMAP
E7
29
30
30
20
20
20
FE
00
30
20
20
ENDCHAR
STARTCHAR 0158
ENCODING 344
SWIDTH 600 0
DWIDTH 10 0
BBX 9 14 1 0
BITMAP
6600
3C00
1800
0000
FE00
4200
4300
4200
7E00
4400
4600
4200
4300
F180
ENDCHAR
STARTCHAR 0159
ENCODING 345
SWIDTH 600 0
DWIDTH 10 0
BBX 8 12 1 0
BITMAP
22
3C
08
00
E7
29
30
30
20
20
20
FE
ENDCHAR
STARTCHAR 015A
ENCODING 346
SWIDTH 600 0
DWIDTH 10 0
BBX 8 14 1 0
BITMAP
04
1C
30
00
3A
46
C2
40
7C
06
83
C3
E3
FE
ENDCHAR
STARTCHAR 015B
ENCODING 347
SWIDTH 600 0
DWIDTH 10 0
BBX 8 12 1 0
BITMAP
04
1C
30
00
7A
46
42
7C
0E
C3
E3
FE
ENDCHAR
STARTCHAR 015C
ENCODING 348
SWIDTH 600 0
DWIDTH 10 0
BBX 8 14 1 0
BITMAP
18
3C
66
00
3A
46
C2
40
7C
06
83
C3
E3
FE
ENDCHAR
STARTCHAR 015D
ENCODING 349
SWIDTH 600 0
DWIDTH 10 0
BBX 8 12 1 0
BITMAP
18
3C
66
00
7A
46
42
7C
0E
C3
E3
FE
ENDCHAR
STARTCHAR 015E
ENCODING 350
SWIDTH 600 0
DWIDTH 10 0
BBX 8 14 1 -4
BITMAP
3A
46
C2
40
7C
06
03
C3
E3
FE
08
0C
04
3C
ENDCHAR
STARTCHAR 015F
ENCODING 351
SWIDTH 600 0
DWIDTH 10 0
BBX 8 12 1 -4
BITMAP
7A
46
42
7C
0E
C3
E3
FE
08
0C
04
3C
ENDCHAR
STARTCHAR 0160
ENCODING 352
SWIDTH 600 0
DWIDTH 10 0
BBX 8 14 1 0
BITMAP
66
3C
18
00
3A
46
C2
40
7C
06
83
C3
E3
FE
ENDCHAR
STARTCHAR 0161
ENCODING 353
SWIDTH 600 0
DWIDTH 10 0
BBX 8 12 1 0
BITMAP
66
3C
18
00
7A
46
42
7C
0E
C3
E3
FE
ENDCHAR
STARTCHAR 0162
ENCODING 354
SWIDTH 600 0
DWIDTH 10 0
BBX 8 14 1 -4
BITMAP
FF
99
99
99
18
18
18
18
18
7E
08
0C
04
3C
ENDCHAR
STARTCHAR 0163
ENCODING 355
SWIDTH 600 0
DWIDTH 10 0
BBX 8 14 1 -4
BITMAP
20
20
20
FE
20
20
20
20
33
1E
08
0C
06
3C
ENDCHAR
STARTCHAR 0164
ENCODING 356
SWIDTH 600 0
DWIDTH 10 0
BBX 8 14 1 0
BITMAP
66
3C
18
00
FF
99
99
99
18
18
18
18
18
7E
ENDCHAR
STARTCHAR 0165
ENCODING 357
SWIDTH 600 0
DWIDTH 10 0
BBX 8 12 1 0
BITMAP
02
06
24
20
20
FE
20
20
20
20
33
1E
ENDCHAR
STARTCHAR 0166
ENCODING 358
SWIDTH 600 0
DWIDTH 10 0
BBX 8 10 1 0
BITMAP
FF
99
99
99
18
7E
18
18
18
7E
ENDCHAR
STARTCHAR 0167
ENCODING 359
SWIDTH 600 0
DWIDTH 10 0
BBX 8 10 1 0
BITMAP
20
20
20
FE
20
FC
20
20
33
1E
ENDCHAR
STARTCHAR 0168
ENCODING 360
SWIDTH 600 0
DWIDTH 10 0
BBX 9 13 1 0
BITMAP
3200
6E00
0000
E780
4300
4300
4300
4300
4300
4300
4300
6600
3C00
ENDCHAR
STARTCHAR 0169
ENCODING 361
SWIDTH 600 0
DWIDTH 10 0
BBX 9 11 1 0
BITMAP
3200
4C00
0000
CE00
4200
4200
4200
4200
4200
6E00
3B80
ENDCHAR
STARTCHAR 016A
ENCODING 362
SWIDTH 600 0
DWIDTH 10 0
BBX 9 13 1 0
BITMAP
7E00
0000
0000
E780
4300
4300
4300
4300
4300
4300
4300
6600
3C00
ENDCHAR
STARTCHAR 016B
ENCODING 363
SWIDTH 600 0
DWIDTH 10 0
BBX 9 11 1 0
BITMAP
7E00
0000
0000
CE00
4200
4200
4200
4200
4200
6E00
3B80
ENDCHAR
STARTCHAR 016C
ENCODING 364
SWIDTH 600 0
DWIDTH 10 0
BBX 9 13 1 0
BITMAP
6600
3C00
0000
E780
4300
4300
4300
4300
4300
4300
4300
6600
3C00
ENDCHAR
STARTCHAR 016D
ENCODING 365
SWIDTH 600 0
DWIDTH 10 0
BBX 9 11 1 0
BITMAP
6600
3C00
0000
CE00
4200
4200
4200
4200
4200
6E00
3B80
ENDCHAR
STARTCHAR 016E
ENCODING 366
SWIDTH 600 0
DWIDTH 10 0
BBX 9 15 1 0
BITMAP
1800
2400
2400
1C00
0000
E780
4300
4300
4300
4300
4300
4300
4300
6600
3C00
ENDCHAR
STARTCHAR 016F
ENCODING 367
SWIDTH 600 0
DWIDTH 10 0
BBX 9 13 1 0
BITMAP
3800
2400
2400
3800
0000
CE00
4200
4200
4200
4200
4200
6E00
3B80
ENDCHAR
STARTCHAR 0170
ENCODING 368
SWIDTH 600 0
DWIDTH 10 0
BBX 9 14 1 0
BITMAP
1900
3200
2400
0000
E780
4300
4300
4300
4300
4300
4300
4300
6600
3C00
ENDCHAR
STARTCHAR 0171
ENCODING 369
SWIDTH 600 0
DWIDTH 10 0
BBX 9 12 1 0
BITMAP
1B00
3600
6C00
0000
CE00
4200
4200
4200
4200
4200
6E00
3B80
ENDCHAR
STARTCHAR 0172
ENCODING 370
SWIDTH 600 0
DWIDTH 10 0
BBX 9 14 1 -4
BITMAP
E780
4300
4300
4300
4300
4300
4300
4300
6600
3E00
0800
1800
1000
1C00
ENDCHAR
STARTCHAR 0173
ENCODING 371
SWIDTH 600 0
DWIDTH 10 0
BBX 9 12 1 -4
BITMAP
CE00
4200
4200
4200
4200
4200
6E00
3B80
0200
0600
0600
0700
ENDCHAR
STARTCHAR 0174
ENCODING 372
SWIDTH 600 0
DWIDTH 10 0
BBX 10 14 0 0
BITMAP
0C00
1E00
3300
0000
F1C0
4080
4C80
4C80
6C80
6E80
3380
3300
3300
2100
ENDCHAR
STARTCHAR 0175
ENCODING 373
SWIDTH 600 0
DWIDTH 10 0
BBX 10 12 0 0
BITMAP
0C00
1E00
3300
0000
E1C0
4080
4C80
4C80
6E80
3300
3300
3300
ENDCHAR
STARTCHAR 0176
ENCODING 374
SWIDTH 600 0
DWIDTH 10 0
BBX 10 14 0 0
BITMAP
0C00
1E00
1300
0000
F3C0
2100
3300
1200
0E00
0C00
0C00
0C00
0C00
3F00
ENDCHAR
STARTCHAR 0177
ENCODING 375
SWIDTH 600 0
DWIDTH 10 0
BBX 10 15 0 -3
BITMAP
0C00
1E00
1100
0000
F3C0
2180
2100
1300
1200
0E00
0C00
0C00
0800
1800
7000
ENDCHAR
STARTCHAR 0178
ENCODING 376
SWIDTH 600 0
DWIDTH 10 0
BBX 10 13 0 0
BITMAP
1300
1300
0000
F3C0
2100
3300
1200
0E00
0C00
0C00
0C00
0C00
3F00
ENDCHAR
STARTCHAR 0179
ENCODING 377
SWIDTH 600 0
DWIDTH 10 0
BBX 8 14 1 0
BITMAP
06
1C
30
00
7F
42
46
4C
08
10
31
21
41
FF
ENDCHAR
STARTCHAR 017A
ENCODING 378
SWIDTH 600 0
DWIDTH 10 0
BBX 8 12 1 0
BITMAP
06
1C
30
00
7F
46
4C
08
10
33
63
FF
ENDCHAR
STARTCHAR 017B
ENCODING 379
SWIDTH 600 0
DWIDTH 10 0
BBX 8 13 1 0
BITMAP
18
18
00
7F
42
46
4C
08
10
31
21
41
FF
ENDCHAR
STARTCHAR 017C
ENCODING 380
SWIDTH 600 0
DWIDTH 10 0
BBX 8 11 1 0
BITMAP
18
18
00
7F
46
4C
08
10
33
63
FF
ENDCHAR
STARTCHAR 017D
ENCODING 381
SWIDTH 600 0
DWIDTH 10 0
BBX 8 14 1 0
BITMAP
26
3C
18
00
7F
42
46
4C
08
10
31
21
41
FF
ENDCHAR
STARTCHAR 017E
ENCODING 382
SWIDTH 600 0
DWIDTH 10 0
BBX 8 12 1 0
BITMAP
22
3C
18
00
7F
46
4C
08
10
33
63
FF
ENDCHAR
STARTCHAR 0192
ENCODING 402
SWIDTH 600 0
DWIDTH 10 0
BBX 10 13 0 -2
BITMAP
03C0
0640
0400
0400
3F00
0C00
0C00
0800
0800
0800
0800
0800
F000
ENDCHAR
STARTCHAR 0218
ENCODING 536
SWIDTH 600 0
DWIDTH 10 0
BBX 8 14 1 -4
BITMAP
3A
46
C2
40
7C
06
83
C3
E3
FE
00
18
10
10
ENDCHAR
STARTCHAR 0219
ENCODING 537
SWIDTH 600 0
DWIDTH 10 0
BBX 8 12 1 -4
BITMAP
7A
46
42
7C
0E
C3
E3
FE
00
18
10
10
ENDCHAR
STARTCHAR 021A
ENCODING 538
SWIDTH 600 0
DWIDTH 10 0
BBX 8 14 1 -4
BITMAP
FF
99
99
99
18
18
18
18
18
7E
00
18
10
10
ENDCHAR
STARTCHAR 021B
ENCODING 539
SWIDTH 600 0
DWIDTH 10 0
BBX 8 14 1 -4
BITMAP
20
20
20
FE
20
20
20
20
33
1E
00
08
08
10
ENDCHAR
STARTCHAR 0237
ENCODING 567
SWIDTH 600 0
DWIDTH 10 0
BBX 6 11 2 -3
BITMAP
F8
0C
0C
0C
0C
0C
0C
0C
08
C8
78
ENDCHAR
STARTCHAR 02C6
ENCODING 710
SWIDTH 600 0
DWIDTH 10 0
BBX 6 3 2 9
BITMAP
30
78
CC
ENDCHAR
STARTCHAR 02C7
ENCODING 711
SWIDTH 600 0
DWIDTH 10 0
BBX 6 3 2 9
BITMAP
CC
78
30
ENDCHAR
STARTCHAR 02D8
ENCODING 728
SWIDTH 600 0
DWIDTH 10 0
BBX 6 2 2 9
BITMAP
CC
78
ENDCHAR
STARTCHAR 02D9
ENCODING 729
SWIDTH 600 0
DWIDTH 10 0
BBX 2 2 4 9
BITMAP
C0
C0
ENDCHAR
STARTCHAR 02DA
ENCODING 730
SWIDTH 600 0
DWIDTH 10 0
BBX 4 4 3 9
BITMAP
60
90
90
70
ENDCHAR
STARTCHAR 02DB
ENCODING 731
SWIDTH 600 0
DWIDTH 10 0
BBX 4 4 3 -4
BITMAP
20
40
C0
70
ENDCHAR
STARTCHAR 02DC
ENCODING 732
SWIDTH 600 0
DWIDTH 10 0
BBX 6 2 2 9
BITMAP
64
DC
ENDCHAR
STARTCHAR 02DD
ENCODING 733
SWIDTH 600 0
DWIDTH 10 0
BBX 6 3 3 9
BITMAP
64
C8
90
ENDCHAR
STARTCHAR 0326
ENCODING 806
SWIDTH 0 0
DWIDTH 0 0
BBX 2 3 -6 -4
BITMAP
C0
80
80
ENDCHAR
STARTCHAR 0394
ENCODING 916
SWIDTH 600 0
DWIDTH 10 0
BBX 8 10 1 0
BITMAP
18
18
1C
24
24
26
42
42
C3
FF
ENDCHAR
STARTCHAR 03A9
ENCODING 937
SWIDTH 600 0
DWIDTH 10 0
BBX 9 10 1 0
BITMAP
3C00
6600
C100
8100
8100
8100
8100
4300
6600
E780
ENDCHAR
STARTCHAR 03BC
ENCODING 956
SWIDTH 600 0
DWIDTH 10 0
BBX 6 11 2 -3
BITMAP
84
84
84
84
84
84
CC
F4
80
80
80
ENDCHAR
STARTCHAR 03C0
ENCODING 960
SWIDTH 600 0
DWIDTH 10 0
BBX 8 8 1 0
BITMAP
FF
42
42
42
42
42
42
42
ENDCHAR
STARTCHAR 1E80
ENCODING 7808
SWIDTH 600 0
DWIDTH 10 0
BBX 10 14 0 0
BITMAP
1000
1C00
0600
0000
F1C0
4080
4C80
4C80
6C80
6E80
3380
3300
3300
2100
ENDCHAR
STARTCHAR 1E81
ENCODING 7809
SWIDTH 600 0
DWIDTH 10 0
BBX 10 12 0 0
BITMAP
3000
1C00
0600
0000
E1C0
4080
4C80
4C80
6E80
3300
3300
3300
ENDCHAR
STARTCHAR 1E82
ENCODING 7810
SWIDTH 600 0
DWIDTH 10 0
BBX 10 14 0 0
BITMAP
0300
0600
0800
0000
F1C0
4080
4C80
4C80
6C80
6E80
3380
3300
3300
2100
ENDCHAR
STARTCHAR 1E83
ENCODING 7811
SWIDTH 600 0
DWIDTH 10 0
BBX 10 12 0 0
BITMAP
0300
0600
0800
0000
E1C0
4080
4C80
4C80
6E80
3300
3300
3300
ENDCHAR
STARTCHAR 1E84
ENCODING 7812
SWIDTH 600 0
DWIDTH 10 0
BBX 10 13 0 0
BITMAP
1300
1300
0000
F1C0
4080
4C80
4C80
6C80
6E80
3380
3300
3300
2100
ENDCHAR
STARTCHAR 1E85
ENCODING 7813
SWIDTH 600 0
DWIDTH 10 0
BBX 10 11 0 0
BITMAP
1300
1300
0000
E1C0
4080
4C80
4C80
6E80
3300
3300
3300
ENDCHAR
STARTCHAR 1EF2
ENCODING 7922
SWIDTH 600 0
DWIDTH 10 0
BBX 10 14 0 0
BITMAP
1000
1C00
0600
0000
F3C0
2100
3300
1200
0E00
0C00
0C00
0C00
0C00
3F00
ENDCHAR
STARTCHAR 1EF3
ENCODING 7923
SWIDTH 600 0
DWIDTH 10 0
BBX 10 15 0 -3
BITMAP
1000
1C00
0600
0000
F3C0
2180
2100
1300
1200
0E00
0C00
0C00
0800
1800
7000
ENDCHAR
STARTCHAR 2011
ENCODING 8209
SWIDTH 600 0
DWIDTH 10 0
BBX 8 1 1 5
BITMAP
FF
ENDCHAR
STARTCHAR 2013
ENCODING 8211
SWIDTH 600 0
DWIDTH 10 0
BBX 8 1 1 5
BITMAP
FF
ENDCHAR
STARTCHAR 2014
ENCODING 8212
SWIDTH 600 0
DWIDTH 10 0
BBX 10 1 0 5
BITMAP
FFC0
ENDCHAR
STARTCHAR 2018
ENCODING 8216
SWIDTH 600 0
DWIDTH 10 0
BBX 4 4 3 7
BITMAP
30
20
60
E0
ENDCHAR
STARTCHAR 2019
ENCODING 8217
SWIDTH 600 0
DWIDTH 10 0
BBX 3 4 4 7
BITMAP
E0
C0
C0
80
ENDCHAR
STARTCHAR 201A
ENCODING 8218
SWIDTH 600 0
DWIDTH 10 0
BBX 3 4 4 -1
BITMAP
E0
C0
C0
80
ENDCHAR
STARTCHAR 201C
ENCODING 8220
SWIDTH 600 0
DWIDTH 10 0
BBX 8 4 1 7
BITMAP
33
22
66
E6
ENDCHAR
STARTCHAR 201D
ENCODING 8221
SWIDTH 600 0
DWIDTH 10 0
BBX 7 4 2 7
BITMAP
EE
CC
CC
88
ENDCHAR
STARTCHAR 201E
ENCODING 8222
SWIDTH 600 0
DWIDTH 10 0
BBX 7 4 2 -1
BITMAP
EE
CC
CC
88
ENDCHAR
STARTCHAR 2020
ENCODING 8224
SWIDTH 600 0
DWIDTH 10 0
BBX 6 8 2 2
BITMAP
10
10
FC
10
10
10
10
10
ENDCHAR
STARTCHAR 2021
ENCODING 8225
SWIDTH 600 0
DWIDTH 10 0
BBX 6 8 2 2
BITMAP
10
10
FC
10
10
FC
10
10
ENDCHAR
STARTCHAR 2022
ENCODING 8226
SWIDTH 600 0
DWIDTH 10 0
BBX 4 4 3 3
BITMAP
F0
F0
F0
F0
ENDCHAR
STARTCHAR 2026
ENCODING 8230
SWIDTH 600 0
DWIDTH 10 0
BBX 8 2 1 0
BITMAP
D9
D9
ENDCHAR
STARTCHAR 2030
ENCODING 8240
SWIDTH 600 0
DWIDTH 10 0
BBX 13 10 0 0
BITMAP
7000
4880
C980
7300
0400
0BB0
16C8
6448
46C8
03B0
ENDCHAR
STARTCHAR 2032
ENCODING 8242
SWIDTH 600 0
DWIDTH 10 0
BBX 4 4 3 6
BITMAP
30
30
60
C0
ENDCHAR
STARTCHAR 2033
ENCODING 8243
SWIDTH 600 0
DWIDTH 10 0
BBX 7 4 2 6
BITMAP
26
6C
48
98
ENDCHAR
STARTCHAR 2039
ENCODING 8249
SWIDTH 600 0
DWIDTH 10 0
BBX 4 6 3 2
BITMAP
10
20
40
C0
20
10
ENDCHAR
STARTCHAR 203A
ENCODING 8250
SWIDTH 600 0
DWIDTH 10 0
BBX 4 6 3 2
BITMAP
C0
60
30
30
60
C0
ENDCHAR
STARTCHAR 2044
ENCODING 8260
SWIDTH 600 0
DWIDTH 10 0
BBX 8 6 1 2
BITMAP
01
03
0C
18
60
80
ENDCHAR
STARTCHAR 2074
ENCODING 8308
SWIDTH 600 0
DWIDTH 10 0
BBX 6 7 2 4
BITMAP
18
38
68
48
FC
08
08
ENDCHAR
STARTCHAR 20A3
ENCODING 8355
SWIDTH 600 0
DWIDTH 10 0
BBX 9 10 0 0
BITMAP
7F80
3080
3080
3000
3E00
3000
FF00
3000
3000
7C00
ENDCHAR
STARTCHAR 20A9
ENCODING 8361
SWIDTH 600 0
DWIDTH 10 0
BBX 10 10 0 0
BITMAP
F1C0
4080
4C80
FFC0
6C80
7F80
3380
3300
3300
2100
ENDCHAR
STARTCHAR 20AC
ENCODING 8364
SWIDTH 600 0
DWIDTH 10 0
BBX 8 10 1 0
BITMAP
1D
33
61
F9
40
40
F8
40
23
1E
ENDCHAR
STARTCHAR 2122
ENCODING 8482
SWIDTH 600 0
DWIDTH 10 0
BBX 11 4 0 7
BITMAP
FA40
2340
23C0
23A0
ENDCHAR
STARTCHAR 2202
ENCODING 8706
SWIDTH 600 0
DWIDTH 10 0
BBX 8 10 1 0
BITMAP
3C
02
03
01
39
47
C2
C2
44
38
ENDCHAR
STARTCHAR 220F
ENCODING 8719
SWIDTH 600 0
DWIDTH 10 0
BBX 7 10 2 0
BITMAP
FE
86
86
86
86
86
86
86
86
84
ENDCHAR
STARTCHAR 2211
ENCODING 8721
SWIDTH 600 0
DWIDTH 10 0
BBX 8 10 1 0
BITMAP
7E
60
20
10
18
18
10
20
60
FF
ENDCHAR
STARTCHAR 2212
ENCODING 8722
SWIDTH 600 0
DWIDTH 10 0
BBX 8 1 1 4
BITMAP
FF
ENDCHAR
STARTCHAR 2215
ENCODING 8725
SWIDTH 600 0
DWIDTH 10 0
BBX 7 16 2 -3
BITMAP
06
04
0C
0C
08
18
10
10
30
20
60
60
40
C0
80
80
ENDCHAR
STARTCHAR 221A
ENCODING 8730
SWIDTH 600 0
DWIDTH 10 0
BBX 8 10 1 0
BITMAP
01
01
03
02
02
E6
24
34
18
18
ENDCHAR
STARTCHAR 221E
ENCODING 8734
SWIDTH 600 0
DWIDTH 10 0
BBX 10 5 0 2
BITMAP
7380
CC40
8440
CC40
7380
ENDCHAR
STARTCHAR 222B
ENCODING 8747
SWIDTH 600 0
DWIDTH 10 0
BBX 10 16 0 -3
BITMAP
03C0
0400
0400
0C00
0C00
0C00
0C00
0C00
0C00
0C00
0C00
0C00
0C00
0C00
0800
F000
ENDCHAR
STARTCHAR 2248
ENCODING 8776
SWIDTH 600 0
DWIDTH 10 0
BBX 8 6 1 2
BITMAP
71
CE
00
00
71
CE
ENDCHAR
STARTCHAR 2260
ENCODING 8800
SWIDTH 600 0
DWIDTH 10 0
BBX 8 8 1 1
BITMAP
06
04
FF
08
10
FF
20
60
ENDCHAR
STARTCHAR 2264
ENCODING 8804
SWIDTH 600 0
DWIDTH 10 0
BBX 8 8 1 1
BITMAP
07
1C
E0
70
1C
03
00
FF
ENDCHAR
STARTCHAR 2265
ENCODING 8805
SWIDTH 600 0
DWIDTH 10 0
BBX 8 8 1 1
BITMAP
E0
3C
07
0E
38
E0
00
FF
ENDCHAR
STARTCHAR 25CA
ENCODING 9674
SWIDTH 600 0
DWIDTH 10 0
BBX 6 10 2 0
BITMAP
30
38
68
CC
84
84
CC
48
38
30
ENDCHAR
STARTCHAR FB01
ENCODING 64257
SWIDTH 600 0
DWIDTH 10 0
BBX 10 11 0 0
BITMAP
1E00
3100
2000
FF00
2100
2100
2100
2100
2100
2100
27C0
ENDCHAR
STARTCHAR FB02
ENCODING 64258
SWIDTH 600 0
DWIDTH 10 0
BBX 10 11 0 0
BITMAP
1F00
3100
2100
FD00
2100
2100
2100
2100
2100
2100
27C0
ENDCHAR
ENDFONT
